<svg xmlns="http://www.w3.org/2000/svg" width="200" height="200" viewBox="0 0 200 200">
    <style>path{fill:black}@media(prefers-color-scheme:dark){path{fill:white}}</style>
    <path d="M65.6,20l-18,41.9V51H28.9V20H15v42h32.5h0.1h14.1l2.8-7.3h15.7L83,62h14.4L79.3,20H65.6z M68.3,44.5l4-10.6l4,10.6H68.3z M170.9,20h-13.7l-18,41.9L130.6,49c2.5-1.3,4.4-3.1,5.8-5.3c1.3-2.2,2-4.9,2-7.9c0-3.2-0.8-6-2.3-8.4c-1.5-2.4-3.7-4.2-6.6-5.5 c-2.8-1.3-6.2-1.9-10-1.9H99.6v42h13.9V51.4h3.8l7,10.6h14.8h0.1h14.1l2.8-7.3h15.7l2.8,7.3H189L170.9,20z M122.9,39.5 c-0.9,0.9-2.4,1.3-4.3,1.3h-5.1v-9.8h5.1c1.9,0,3.3,0.4,4.3,1.3c0.9,0.9,1.4,2.1,1.4,3.6C124.3,37.4,123.9,38.6,122.9,39.5z M159.9,44.5l4-10.6l4,10.6H159.9z"/>
    <path d="M33.5,95.2c-2.3,2.4-3.4,5.7-3.4,9.8c0,4.1,1.1,7.3,3.4,9.8c2.3,2.4,5.3,3.6,9,3.6c4.4,0,8.3-2.1,11.6-6.3l11.3,10.2 c-2.6,3.5-6,6.1-10,8c-4,1.8-8.6,2.8-13.8,2.8c-5.6,0-10.7-1.2-15.2-3.6c-4.5-2.4-8-5.7-10.6-9.9c-2.6-4.3-3.8-9.1-3.8-14.5 c0-5.4,1.3-10.2,3.8-14.5c2.6-4.3,6.1-7.6,10.6-9.9C30.9,78.2,36,77,41.6,77c5.2,0,9.8,0.9,13.8,2.8c4,1.8,7.4,4.5,10,8L54.1,97.9 c-3.3-4.2-7.2-6.3-11.6-6.3C38.7,91.6,35.7,92.8,33.5,95.2z M123.3,90.6c2.6,4.3,3.9,9.1,3.9,14.4s-1.3,10.2-3.9,14.4 c-2.6,4.3-6.1,7.6-10.7,10c-4.5,2.4-9.7,3.6-15.4,3.6c-5.7,0-10.8-1.2-15.4-3.6c-4.5-2.4-8.1-5.7-10.7-10c-2.6-4.3-3.9-9.1-3.9-14.4 s1.3-10.2,3.9-14.4c2.6-4.3,6.1-7.6,10.7-10c4.5-2.4,9.7-3.6,15.4-3.6c5.7,0,10.8,1.2,15.4,3.6C117.2,83,120.7,86.3,123.3,90.6z M109.1,105c0-2.7-0.5-5.1-1.6-7.1c-1.1-2-2.5-3.6-4.3-4.7c-1.8-1.1-3.8-1.6-6-1.6c-2.2,0-4.2,0.5-6,1.6c-1.8,1.1-3.2,2.7-4.3,4.7 c-1.1,2-1.6,4.4-1.6,7.1c0,2.7,0.5,5.1,1.6,7.1c1.1,2,2.5,3.6,4.3,4.7c1.8,1.1,3.8,1.6,6,1.6c2.2,0,4.2-0.5,6-1.6 c1.8-1.1,3.2-2.7,4.3-4.7C108.6,110.1,109.1,107.7,109.1,105z M168.6,78.2v24.3l-20.2-24.3h-14.7v53.6h17.4v-24.3l20.2,24.3H186 V78.2H168.6z"/>
    <path d="M38.6,150.1c-2.6-1.4-5.5-2.1-8.7-2.1c-3.2,0-6.1,0.7-8.7,2.1c-2.6,1.4-4.6,3.3-6,5.7c-1.5,2.4-2.2,5.2-2.2,8.2 c0,3,0.7,5.8,2.2,8.2c1.5,2.4,3.5,4.3,6,5.7c2.6,1.4,5.5,2.1,8.7,2.1c3.2,0,6.1-0.7,8.7-2.1c2.6-1.4,4.6-3.3,6-5.7 c1.5-2.4,2.2-5.2,2.2-8.2c0-3-0.7-5.8-2.2-8.2C43.1,153.3,41.1,151.4,38.6,150.1z M37,168.6c-0.7,1.3-1.7,2.4-3,3.1 c-1.2,0.7-2.6,1.1-4.2,1.1s-2.9-0.4-4.2-1.1c-1.2-0.7-2.2-1.8-3-3.1c-0.7-1.3-1.1-2.9-1.1-4.6c0-1.7,0.4-3.3,1.1-4.6 c0.7-1.3,1.7-2.4,3-3.1c1.2-0.7,2.6-1.1,4.2-1.1s2.9,0.4,4.2,1.1c1.2,0.7,2.2,1.8,3,3.1c0.7,1.3,1.1,2.9,1.1,4.6 C38.1,165.7,37.7,167.3,37,168.6z M71.8,148.6h8.4v30.8h-7.1L59.7,163v16.4h-8.4v-30.8h7.1L71.8,165V148.6z M94.9,172.5h14.5v6.9 H86.3v-30.8h8.6V172.5z M112.8,148.6h8.6v30.8h-8.6V148.6z M148.1,148.6h8.4v30.8h-7.1L136,163v16.4h-8.4v-30.8h7.1l13.4,16.4V148.6 z M187,172.7v6.7h-24.4v-30.8h23.9v6.7h-15.3v5.2h13.5v6.5h-13.5v5.6H187z"/>
</svg>
